<svg height="512pt" viewBox="0 0 512 512" width="512pt" xmlns="http://www.w3.org/2000/svg"><path d="m512 256h-89.601562c-16.851563 0-32.210938 9.8125-39.039063 25.171875l-54.613281 122.242187c-3.199219 7.464844-10.667969 12.585938-19.414063 12.585938-9.597656 0-17.707031-6.398438-20.480469-15.148438l-87.039062-289.703124c-2.773438-8.75-10.878906-15.148438-20.480469-15.148438-9.597656 0-17.707031 6.398438-20.480469 15.148438l-34.34375 114.558593c-5.546874 17.917969-21.972656 30.292969-40.960937 30.292969h-85.546875c0-141.226562 114.773438-256 256-256s256 114.773438 256 256zm0 0" fill="#eceff1"/><path d="m512 256c0 141.226562-114.773438 256-256 256s-256-114.773438-256-256h85.546875c18.988281 0 35.414063-12.375 40.960937-30.292969l34.34375-114.558593c2.773438-8.75 10.882813-15.148438 20.480469-15.148438 9.601563 0 17.707031 6.398438 20.480469 15.148438l87.039062 289.703124c2.773438 8.75 10.882813 15.148438 20.480469 15.148438 8.746094 0 16.214844-5.121094 19.414063-12.585938l54.613281-122.242187c6.828125-15.359375 22.1875-25.171875 39.039063-25.171875zm0 0" fill="#2768FD"/><path d="m309.332031 432c-16.402343 0-30.738281-10.582031-35.730469-26.304688l-87.125-289.941406c-.515624-1.683594-2.414062-3.753906-5.144531-3.753906s-4.628906 2.070312-5.226562 3.988281l-34.261719 114.328125c-7.742188 24.980469-30.335938 41.683594-56.296875 41.683594h-69.546875c-8.832031 0-16-7.167969-16-16s7.167969-16 16-16h69.546875c11.839844 0 22.144531-7.636719 25.664063-19.03125l34.304687-114.429688c5.078125-15.957031 19.433594-26.539062 35.816406-26.539062 16.386719 0 30.742188 10.582031 35.734375 26.304688l87.125 289.941406c.535156 1.75 2.390625 3.753906 5.140625 3.753906 2.5625 0 4.097657-1.492188 4.714844-2.902344l54.699219-122.453125c9.34375-21.035156 30.421875-34.664062 53.652344-34.664062h73.601562c8.832031 0 16 7.167969 16 16s-7.167969 16-16 16h-73.601562c-10.601563 0-20.179688 6.164062-24.425782 15.679687l-54.632812 122.261719c-5.695313 13.332031-19.09375 22.078125-34.007813 22.078125zm0 0"/><path d="m256 512c-141.164062 0-256-114.835938-256-256s114.835938-256 256-256 256 114.835938 256 256-114.835938 256-256 256zm0-480c-123.519531 0-224 100.480469-224 224s100.480469 224 224 224 224-100.480469 224-224-100.480469-224-224-224zm0 0"/></svg>